<svg xmlns="http://www.w3.org/2000/svg" width="75.6" height="75.6" viewBox="0 0 75.6 75.6">
  <defs>
    <style>
      .cls-1 {
        fill: none;
        stroke: #fff;
        stroke-miterlimit: 10;
        stroke-width: 2px;
      }
    </style>
  </defs>
  <g id="Layer_2" data-name="Layer 2">
    <g id="circle">
      <circle class="cls-1" cx="37.8" cy="37.8" r="36.8"/>
    </g>
    <g id="music9">
      <path d="M57.55,62.26c-.16,3.07-2.62,5.06-4.66,6.18A18.47,18.47,0,0,1,50,69.74a21.19,21.19,0,0,1-6.82,1.16c-2.51,0-5.84-.6-7.46-3.47-1.24-2.2-.92-4.63-.61-7,.12-.91.23-1.77.26-2.63C35.44,54.75,33.76,52.9,32,51c-.91-1-3-3.68-2.56-6.53a3.47,3.47,0,0,1,1.23-2.31,1.22,1.22,0,0,1,1.09-.06c.74.29,1,1.18,1.28,1.89a5.91,5.91,0,0,0,.21.57,2.5,2.5,0,0,0,2.5,1.79,2.37,2.37,0,0,0,1.67-.83,1.21,1.21,0,0,0,.24-1l0-.06L28.57,16.81h0a8.23,8.23,0,0,1-1.66-2.63l-1-.07a.44.44,0,0,1-.39.21l-.48,0a.41.41,0,0,1-.39-.44V13.6a.43.43,0,0,1,.45-.4l.47,0a.4.4,0,0,1,.36.27l.87.06s0-.08,0-.12l0-1.1-.8-.05a.44.44,0,0,1-.39.21l-.48,0a.42.42,0,0,1-.39-.45v-.25a.42.42,0,0,1,.45-.39l.47,0a.4.4,0,0,1,.36.27l.79,0,0-1.21-.73,0a.44.44,0,0,1-.39.21l-.48,0a.42.42,0,0,1-.39-.45V10a.42.42,0,0,1,.45-.39l.47,0a.43.43,0,0,1,.37.27l.71,0,0-1.21-.66,0a.43.43,0,0,1-.39.21l-.48,0A.43.43,0,0,1,25,8.39V8.14a.42.42,0,0,1,.45-.39l.47,0a.43.43,0,0,1,.37.27l.64,0,0-1.22-.59,0A.43.43,0,0,1,26,7l-.48,0a.43.43,0,0,1-.39-.45l0-.25a.41.41,0,0,1,.44-.39l.47,0a.43.43,0,0,1,.37.27l.57,0,0-.36a1.48,1.48,0,0,1,1.7-1.42l.43.07a1.49,1.49,0,0,1,1.26,1.55l-.1,1.68a3.76,3.76,0,0,0,.94,2.7l.66.76a3.77,3.77,0,0,1,.81,3.48l-.58,2.14L43,46.69h0a3.18,3.18,0,0,0,3.36-2.77q0-.16.06-.36c.14-1,.34-2.25,1.13-2.52h0c.46-.16,1,.06,1.6.66,1.41,1.38,1.37,3.42,1.34,5.22,0,.42,0,.8,0,1.17.07,2.65,1.45,4.16,3.06,5.91.25.28.52.56.78.86C55.89,56.62,57.71,59.32,57.55,62.26Z"/>
    </g>
  </g>
</svg>
